<svg width="280" height="360" viewBox="0 0 280 360" fill="none" xmlns="http://www.w3.org/2000/svg">
<g id="engineer-mobile">
<g id="shadow">
<path id="shadow_2" d="M200.822 357.265C241.622 357.265 274.697 352.197 274.697 345.945C274.697 339.693 241.622 334.625 200.822 334.625C160.022 334.625 126.947 339.693 126.947 345.945C126.947 352.197 160.022 357.265 200.822 357.265Z" fill="#D5ECF5"/>
</g>
<g id="application">
<g id="crane-body">
<path id="Vector" d="M35.8177 112.115C35.5154 112.115 35.2254 111.995 35.0116 111.781C34.7979 111.567 34.6777 111.277 34.6777 110.975V19.4149C34.6777 19.1126 34.7979 18.8226 35.0116 18.6088C35.2254 18.395 35.5154 18.2749 35.8177 18.2749C36.1201 18.2749 36.41 18.395 36.6238 18.6088C36.8376 18.8226 36.9577 19.1126 36.9577 19.4149V110.975C36.9577 111.277 36.8376 111.567 36.6238 111.781C36.41 111.995 36.1201 112.115 35.8177 112.115V112.115Z" fill="#FFA038"/>
<path id="Vector_2" d="M66.3364 112.115C66.0341 112.115 65.7441 111.995 65.5303 111.781C65.3165 111.567 65.1964 111.277 65.1964 110.975V19.4148C65.1815 19.2555 65.2 19.0948 65.2508 18.943C65.3015 18.7912 65.3834 18.6517 65.4912 18.5333C65.599 18.415 65.7303 18.3205 65.8767 18.2558C66.0231 18.1911 66.1813 18.1577 66.3414 18.1577C66.5015 18.1577 66.6597 18.1911 66.8061 18.2558C66.9525 18.3205 67.0838 18.415 67.1916 18.5333C67.2994 18.6517 67.3812 18.7912 67.432 18.943C67.4828 19.0948 67.5013 19.2555 67.4864 19.4148V110.975C67.4837 111.278 67.3614 111.568 67.146 111.782C66.9307 111.995 66.6397 112.115 66.3364 112.115V112.115Z" fill="#FFA038"/>
<path id="Vector_3" d="M66.3369 51.0747C66.034 51.0757 65.7429 50.9571 65.5269 50.7447L51.0769 36.2947L36.6269 50.7047C36.4065 50.8892 36.125 50.9845 35.8379 50.9718C35.5507 50.9591 35.2787 50.8394 35.0755 50.6361C34.8722 50.4329 34.7525 50.1609 34.7398 49.8737C34.7271 49.5866 34.8224 49.3051 35.0069 49.0847L49.4569 34.7047L35.0069 20.2247C34.833 20.0664 34.7117 19.8587 34.6595 19.6294C34.6074 19.4001 34.6267 19.1604 34.715 18.9424C34.8032 18.7245 34.9562 18.5388 35.1532 18.4105C35.3502 18.2822 35.5819 18.2173 35.8169 18.2247H66.3369C66.5639 18.2252 66.7858 18.2929 66.9744 18.4192C67.163 18.5456 67.31 18.7249 67.3969 18.9347C67.4845 19.1442 67.5075 19.3752 67.463 19.5979C67.4184 19.8206 67.3084 20.0249 67.1469 20.1847L52.6969 34.7047L67.1469 49.1547C67.3267 49.3104 67.4533 49.5185 67.509 49.7498C67.5646 49.981 67.5466 50.2239 67.4573 50.4444C67.368 50.6649 67.2119 50.8519 67.011 50.9793C66.8101 51.1067 66.5744 51.168 66.3369 51.1547V51.0747ZM38.5769 20.5547L51.0769 33.0547L63.5769 20.5547H38.5769Z" fill="#FFA038"/>
<path id="Vector_4" d="M35.8168 20.5546C35.5902 20.5562 35.3683 20.4902 35.1793 20.365C34.9904 20.2399 34.8431 20.0613 34.7562 19.852C34.6692 19.6427 34.6466 19.4123 34.6913 19.1901C34.7359 18.9679 34.8458 18.7641 35.0068 18.6046L50.2668 3.34465C50.3728 3.23762 50.4989 3.15266 50.638 3.09467C50.777 3.03669 50.9262 3.00684 51.0768 3.00684C51.2274 3.00684 51.3766 3.03669 51.5156 3.09467C51.6546 3.15266 51.7808 3.23762 51.8868 3.34465L67.1468 18.6046C67.2538 18.7106 67.3388 18.8368 67.3968 18.9758C67.4547 19.1149 67.4846 19.264 67.4846 19.4146C67.4846 19.5653 67.4547 19.7144 67.3968 19.8535C67.3388 19.9925 67.2538 20.1186 67.1468 20.2246C66.9301 20.436 66.6394 20.5543 66.3368 20.5543C66.0341 20.5543 65.7434 20.436 65.5268 20.2246L51.0768 5.77465L36.6268 20.2246C36.4108 20.437 36.1197 20.5556 35.8168 20.5546V20.5546Z" fill="#FFA038"/>
<path id="Vector_5" d="M96.8573 20.5546C96.5548 20.5535 96.2645 20.4352 96.0473 20.2246L81.5973 5.77465L67.1473 20.2246C66.9306 20.436 66.6399 20.5543 66.3373 20.5543C66.0346 20.5543 65.7439 20.436 65.5273 20.2246C65.4202 20.1186 65.3353 19.9925 65.2773 19.8535C65.2193 19.7144 65.1895 19.5653 65.1895 19.4146C65.1895 19.264 65.2193 19.1149 65.2773 18.9758C65.3353 18.8368 65.4202 18.7106 65.5273 18.6046L80.7873 3.34465C80.8933 3.23762 81.0194 3.15266 81.1585 3.09467C81.2975 3.03669 81.4466 3.00684 81.5973 3.00684C81.7479 3.00684 81.897 3.03669 82.0361 3.09467C82.1751 3.15266 82.3013 3.23762 82.4073 3.34465L97.6973 18.6046C97.8583 18.7641 97.9681 18.9679 98.0128 19.1901C98.0574 19.4123 98.0348 19.6427 97.9479 19.852C97.861 20.0613 97.7136 20.2399 97.5247 20.365C97.3358 20.4902 97.1139 20.5562 96.8873 20.5546H96.8573Z" fill="#FFA038"/>
<path id="Vector_6" d="M96.8568 20.5546C96.5543 20.5535 96.264 20.4352 96.0468 20.2246C95.9398 20.1186 95.8548 19.9925 95.7968 19.8535C95.7388 19.7144 95.709 19.5653 95.709 19.4146C95.709 19.264 95.7388 19.1149 95.7968 18.9758C95.8548 18.8368 95.9398 18.7107 96.0468 18.6047L111.307 3.34465C111.413 3.23762 111.539 3.15266 111.678 3.09467C111.817 3.03669 111.966 3.00684 112.117 3.00684C112.267 3.00684 112.417 3.03669 112.556 3.09467C112.695 3.15266 112.821 3.23762 112.927 3.34465L128.187 18.6047C128.294 18.7107 128.379 18.8368 128.437 18.9758C128.495 19.1149 128.525 19.264 128.525 19.4146C128.525 19.5653 128.495 19.7144 128.437 19.8535C128.379 19.9925 128.294 20.1186 128.187 20.2246C127.97 20.436 127.679 20.5543 127.377 20.5543C127.074 20.5543 126.783 20.436 126.567 20.2246L112.117 5.77465L97.6968 20.2246C97.5863 20.3335 97.4549 20.4188 97.3105 20.4755C97.1662 20.5322 97.0118 20.5591 96.8568 20.5546Z" fill="#FFA038"/>
<path id="Vector_7" d="M35.8168 81.5947C35.5902 81.5962 35.3683 81.5302 35.1793 81.4051C34.9904 81.2799 34.8431 81.1013 34.7562 80.892C34.6692 80.6827 34.6466 80.4523 34.6913 80.2301C34.7359 80.008 34.8458 79.8041 35.0068 79.6447L65.5268 49.1247C65.7472 48.9402 66.0287 48.8449 66.3158 48.8576C66.603 48.8703 66.875 48.99 67.0782 49.1933C67.2815 49.3965 67.4012 49.6685 67.4139 49.9557C67.4266 50.2428 67.3313 50.5243 67.1468 50.7447L36.6268 81.2647C36.4108 81.4771 36.1197 81.5957 35.8168 81.5947Z" fill="#FFA038"/>
<path id="Vector_8" d="M66.3365 81.5946C66.0336 81.5956 65.7425 81.477 65.5265 81.2646L35.0065 50.7046C34.822 50.4843 34.7267 50.2028 34.7394 49.9156C34.7521 49.6285 34.8719 49.3565 35.0751 49.1532C35.2783 48.95 35.5503 48.8302 35.8375 48.8175C36.1246 48.8048 36.4061 48.9001 36.6265 49.0846L67.1465 79.6046C67.3075 79.7641 67.4174 79.9679 67.462 80.1901C67.5066 80.4123 67.4841 80.6427 67.3971 80.852C67.3102 81.0613 67.1629 81.2399 66.974 81.365C66.785 81.4902 66.5631 81.5562 66.3365 81.5546V81.5946Z" fill="#FFA038"/>
<path id="Vector_9" d="M66.3375 112.115H35.8175C35.5913 112.117 35.3697 112.051 35.1809 111.926C34.9922 111.802 34.8448 111.624 34.7575 111.415C34.6725 111.205 34.651 110.975 34.6954 110.753C34.7398 110.53 34.8483 110.326 35.0075 110.165L49.4575 95.7049L35.0075 81.2549C34.823 81.0346 34.7277 80.7531 34.7404 80.4659C34.7531 80.1788 34.8728 79.9068 35.0761 79.7035C35.2793 79.5003 35.5513 79.3805 35.8384 79.3678C36.1256 79.3551 36.4071 79.4504 36.6275 79.6349L51.0775 94.085L65.5275 79.6349C65.7479 79.4504 66.0294 79.3551 66.3165 79.3678C66.6036 79.3805 66.8756 79.5003 67.0789 79.7035C67.2821 79.9068 67.4019 80.1788 67.4146 80.4659C67.4273 80.7531 67.332 81.0346 67.1475 81.2549L52.6975 95.7049L67.1475 110.155C67.3085 110.314 67.4183 110.518 67.463 110.74C67.5076 110.963 67.485 111.193 67.3981 111.402C67.3112 111.612 67.1638 111.79 66.9749 111.915C66.786 112.041 66.5641 112.107 66.3375 112.105V112.115ZM38.5775 109.835H63.5775L51.0775 97.335L38.5775 109.835Z" fill="#FFA038"/>
<path id="Vector_10" d="M25.1369 35.8951H8.83691L10.8869 19.415H23.0769L25.1369 35.8951Z" fill="#FFA038"/>
<path id="Vector_11" d="M25.1371 37.0349H8.83705C8.67522 37.0345 8.51523 37.0005 8.36721 36.9351C8.21918 36.8697 8.08633 36.7743 7.97705 36.6549C7.87155 36.5319 7.7923 36.3886 7.74415 36.2338C7.696 36.079 7.67998 35.9161 7.69705 35.7549L9.75705 19.2749C9.79118 18.9991 9.92484 18.7453 10.1329 18.5612C10.341 18.377 10.6092 18.2752 10.8871 18.2749H23.077C23.356 18.2749 23.6255 18.3764 23.8352 18.5604C24.045 18.7444 24.1807 18.9983 24.217 19.2749L26.217 35.7549C26.2369 35.9151 26.2225 36.0777 26.1747 36.2319C26.127 36.3861 26.0471 36.5284 25.9403 36.6494C25.8335 36.7704 25.7022 36.8673 25.5551 36.9338C25.408 37.0002 25.2485 37.0347 25.0871 37.0349H25.1371ZM10.1371 34.7449H23.8371L22.0671 20.5549H11.9071L10.1371 34.7449Z" fill="#FFA038"/>
<path id="Vector_12" d="M127.377 20.5548H6.25712C6.09776 20.5697 5.93705 20.5511 5.78526 20.5004C5.63347 20.4496 5.49395 20.3677 5.37563 20.26C5.2573 20.1522 5.16277 20.0209 5.09809 19.8745C5.03341 19.7281 5 19.5698 5 19.4098C5 19.2497 5.03341 19.0914 5.09809 18.945C5.16277 18.7986 5.2573 18.6673 5.37563 18.5596C5.49395 18.4518 5.63347 18.3699 5.78526 18.3191C5.93705 18.2684 6.09776 18.2499 6.25712 18.2648H127.377C127.536 18.2499 127.697 18.2684 127.849 18.3191C128.001 18.3699 128.14 18.4518 128.259 18.5596C128.377 18.6673 128.471 18.7986 128.536 18.945C128.601 19.0914 128.634 19.2497 128.634 19.4098C128.634 19.5698 128.601 19.7281 128.536 19.8745C128.471 20.0209 128.377 20.1522 128.259 20.26C128.14 20.3677 128.001 20.4496 127.849 20.5004C127.697 20.5511 127.536 20.5697 127.377 20.5548Z" fill="#FFA038"/>
<path id="Vector_13" d="M112.117 5.29499H51.1171C50.8319 5.2683 50.5669 5.13614 50.374 4.92437C50.1811 4.71259 50.0742 4.43645 50.0742 4.14999C50.0742 3.86354 50.1811 3.5874 50.374 3.37562C50.5669 3.16384 50.8319 3.03168 51.1171 3.005H112.117C112.276 2.99009 112.437 3.00861 112.589 3.05937C112.741 3.11013 112.88 3.19202 112.999 3.29979C113.117 3.40757 113.211 3.53885 113.276 3.68525C113.341 3.83165 113.374 3.98994 113.374 4.14999C113.374 4.31005 113.341 4.46834 113.276 4.61474C113.211 4.76114 113.117 4.89242 112.999 5.0002C112.88 5.10797 112.741 5.18986 112.589 5.24062C112.437 5.29138 112.276 5.3099 112.117 5.29499V5.29499Z" fill="#FFA038"/>
</g>
<g id="freepik  App  inject 121">
<path id="Vector_14" d="M153.328 59H35.9402C29.7309 59 24.6973 64.0336 24.6973 70.2429V317.757C24.6973 323.966 29.7309 329 35.9402 329H153.328C159.537 329 164.571 323.966 164.571 317.757V70.2429C164.571 64.0336 159.537 59 153.328 59Z" fill="#6FBEDD"/>
<path id="Vector_15" opacity="0.2" d="M153.328 59H35.9402C29.7309 59 24.6973 64.0336 24.6973 70.2429V317.757C24.6973 323.966 29.7309 329 35.9402 329H153.328C159.537 329 164.571 323.966 164.571 317.757V70.2429C164.571 64.0336 159.537 59 153.328 59Z" fill="#2D2D2D"/>
<path id="Vector_16" d="M167.693 59H50.3054C44.0961 59 39.0625 64.0336 39.0625 70.2429V317.757C39.0625 323.966 44.0961 329 50.3054 329H167.693C173.902 329 178.936 323.966 178.936 317.757V70.2429C178.936 64.0336 173.902 59 167.693 59Z" fill="#6FBEDD"/>
<path id="Vector_17" d="M174.247 317.757L174.247 70.2329C174.247 66.6131 171.313 63.6787 167.693 63.6787L50.2955 63.6787C46.6757 63.6787 43.7413 66.6131 43.7413 70.2329L43.7413 317.757C43.7413 321.377 46.6757 324.311 50.2955 324.311H167.693C171.313 324.311 174.247 321.377 174.247 317.757Z" fill="white"/>
<path id="Vector_18" opacity="0.1" d="M172.377 213.932L167 103.21C166.783 98.73 162.975 95.275 158.496 95.4925L62.6595 100.146C58.1799 100.364 54.7249 104.171 54.9424 108.651L60.3189 219.374C60.5365 223.853 64.3441 227.308 68.8237 227.091L164.66 222.437C169.139 222.219 172.594 218.412 172.377 213.932Z" fill="#2D2D2D"/>
<path id="Vector_19" d="M170.507 76.4879V71.7992C170.507 69.386 168.551 67.4297 166.137 67.4297L51.8625 67.4297C49.4493 67.4297 47.493 69.386 47.493 71.7992V76.4879C47.493 78.9011 49.4493 80.8574 51.8625 80.8574H166.137C168.551 80.8574 170.507 78.9011 170.507 76.4879Z" fill="#6FBEDD"/>
<path id="Vector_20" d="M60.502 77.2861C59.6677 77.2861 58.8674 76.9553 58.2765 76.3663C57.6855 75.7772 57.3522 74.978 57.3496 74.1436C57.3522 73.3084 57.6852 72.5081 58.2758 71.9174C58.8665 71.3268 59.6668 70.9938 60.502 70.9912V70.9912C61.3373 70.9938 62.1376 71.3268 62.7282 71.9174C63.3188 72.5081 63.6518 73.3084 63.6544 74.1436C63.6518 74.978 63.3185 75.7772 62.7276 76.3663C62.1367 76.9553 61.3364 77.2861 60.502 77.2861V77.2861Z" fill="white"/>
<path id="Vector_21" d="M69.8682 77.2861C69.0339 77.2861 68.2336 76.9553 67.6427 76.3663C67.0518 75.7772 66.7185 74.978 66.7158 74.1436V74.1436C66.7185 73.3084 67.0514 72.5081 67.642 71.9174C68.2327 71.3268 69.033 70.9938 69.8682 70.9912V70.9912C70.7026 70.9939 71.5018 71.3271 72.0909 71.918C72.6799 72.5089 73.0107 73.3093 73.0107 74.1436V74.1436C73.008 74.9762 72.6761 75.774 72.0874 76.3628C71.4986 76.9515 70.7009 77.2834 69.8682 77.2861Z" fill="white"/>
<path id="Vector_22" d="M79.2354 77.2861C78.4011 77.2861 77.6008 76.9553 77.0099 76.3663C76.4189 75.7772 76.0856 74.978 76.083 74.1436V74.1436C76.0856 73.3084 76.4186 72.5081 77.0092 71.9174C77.5999 71.3268 78.4002 70.9938 79.2354 70.9912V70.9912C80.0698 70.9939 80.869 71.3271 81.4581 71.918C82.0471 72.5089 82.3779 73.3093 82.3779 74.1436V74.1436C82.3752 74.9762 82.0433 75.774 81.4546 76.3628C80.8658 76.9515 80.068 77.2834 79.2354 77.2861Z" fill="white"/>
<path id="Vector_23" d="M161.737 70.2329H157.367C156.42 70.2329 155.651 71.0011 155.651 71.9488V76.3183C155.651 77.2659 156.42 78.0341 157.367 78.0341H161.737C162.684 78.0341 163.453 77.2659 163.453 76.3183V71.9488C163.453 71.0011 162.684 70.2329 161.737 70.2329Z" fill="white"/>
<path id="Vector_24" d="M86.5641 271.232C97.7167 266.613 103.013 253.827 98.3932 242.674C93.7737 231.522 80.9878 226.225 69.8352 230.845C58.6826 235.465 53.3865 248.25 58.0061 259.403C62.6256 270.556 75.4115 275.852 86.5641 271.232Z" fill="#6FBEDD"/>
<path id="Vector_25" d="M156.221 241.102H113.604C112.879 241.099 112.186 240.81 111.674 240.298C111.162 239.786 110.873 239.092 110.87 238.368V238.368C110.873 237.644 111.162 236.95 111.674 236.438C112.186 235.926 112.879 235.637 113.604 235.635H156.221C156.946 235.635 157.641 235.923 158.154 236.435C158.666 236.948 158.954 237.643 158.954 238.368V238.368C158.954 239.093 158.666 239.788 158.154 240.301C157.641 240.814 156.946 241.102 156.221 241.102V241.102Z" fill="#6FBEDD"/>
<path id="Vector_26" d="M156.221 253.771H113.604C112.879 253.768 112.186 253.48 111.674 252.968C111.162 252.455 110.873 251.762 110.87 251.038V251.038C110.873 250.314 111.162 249.62 111.674 249.108C112.186 248.596 112.879 248.307 113.604 248.304H156.221C156.946 248.304 157.641 248.592 158.154 249.105C158.666 249.617 158.954 250.313 158.954 251.038V251.038C158.954 251.763 158.666 252.458 158.154 252.97C157.641 253.483 156.946 253.771 156.221 253.771Z" fill="#6FBEDD"/>
<path id="Vector_27" d="M156.221 260.974H113.604C112.094 260.974 110.87 262.197 110.87 263.707C110.87 265.217 112.094 266.44 113.604 266.44H156.221C157.731 266.44 158.954 265.217 158.954 263.707C158.954 262.197 157.731 260.974 156.221 260.974Z" fill="#6FBEDD"/>
<path id="Vector_28" d="M151.871 285.166H66.1372C60.7268 285.166 56.3408 289.552 56.3408 294.962V307.143C56.3408 312.553 60.7268 316.939 66.1372 316.939H151.871C157.281 316.939 161.667 312.553 161.667 307.143V294.962C161.667 289.552 157.281 285.166 151.871 285.166Z" fill="#6FBEDD"/>
<path id="Vector_29" d="M184.18 205.919L175.56 95.4015C175.211 90.9303 171.304 87.5884 166.833 87.9371L71.1744 95.3984C66.7032 95.7472 63.3613 99.6545 63.71 104.126L72.3303 214.643C72.679 219.114 76.5864 222.456 81.0576 222.108L176.716 214.646C181.187 214.298 184.529 210.39 184.18 205.919Z" fill="white"/>
<path id="Vector_30" d="M80.4032 222.656C78.2306 222.652 76.1397 221.828 74.5489 220.348C72.9581 218.868 71.9848 216.842 71.8239 214.675L63.2046 104.151C63.0311 101.874 63.7674 99.6212 65.2522 97.8859C66.7369 96.1506 68.849 95.0746 71.1256 94.8937L166.795 87.4317C169.072 87.2582 171.326 87.9945 173.061 89.4792C174.796 90.9639 175.872 93.076 176.053 95.3526L184.672 205.877C184.848 208.155 184.113 210.411 182.628 212.149C181.143 213.886 179.03 214.963 176.751 215.144L81.0816 222.596C80.8522 222.656 80.6327 222.656 80.4032 222.656ZM72.8215 214.675C72.9844 216.685 73.9366 218.547 75.4697 219.856C77.0029 221.165 78.992 221.813 81.0018 221.659L176.671 214.197C178.681 214.031 180.544 213.077 181.853 211.542C183.161 210.007 183.809 208.017 183.655 206.006L175.035 95.4823C174.873 93.4713 173.919 91.6069 172.384 90.2979C170.848 88.9889 168.857 88.342 166.845 88.4991L71.1854 95.9612C69.1754 96.1266 67.3127 97.0809 66.0041 98.6156C64.6956 100.15 64.0478 102.141 64.2022 104.151L72.8215 214.675Z" fill="#6FBEDD"/>
<path id="Vector_31" d="M180.021 203.961L178.11 179.465C177.835 175.933 174.748 173.293 171.216 173.569L80.1129 180.675C76.581 180.95 73.9411 184.037 74.2166 187.569L76.1273 212.065C76.4028 215.597 79.4893 218.237 83.0213 217.961L174.125 210.855C177.656 210.58 180.296 207.493 180.021 203.961Z" fill="#6FBEDD"/>
<path id="Vector_32" opacity="0.2" d="M125.979 166.82L120.926 102.033C120.647 98.4569 117.522 95.7842 113.946 96.0631L73.8449 99.191C70.269 99.4699 67.5963 102.595 67.8752 106.171L72.9285 170.957C73.2074 174.533 76.3323 177.206 79.9082 176.927L120.01 173.799C123.585 173.52 126.258 170.395 125.979 166.82Z" fill="#6FBEDD"/>
<path id="Vector_33" opacity="0.2" d="M172.189 107.81L171.332 96.8203C171.107 93.9475 168.597 91.8003 165.724 92.0244L131.361 94.7046C128.489 94.9287 126.341 97.4392 126.566 100.312L127.423 111.302C127.647 114.175 130.157 116.322 133.03 116.098L167.393 113.418C170.266 113.194 172.413 110.683 172.189 107.81Z" fill="#6FBEDD"/>
<path id="Vector_34" opacity="0.4" d="M174.379 135.982L173.522 124.992C173.298 122.119 170.787 119.972 167.915 120.196L133.552 122.876C130.679 123.1 128.532 125.611 128.756 128.483L129.613 139.473C129.837 142.346 132.348 144.493 135.221 144.269L169.583 141.589C172.456 141.365 174.603 138.855 174.379 135.982Z" fill="#6FBEDD"/>
<path id="Vector_35" opacity="0.6" d="M176.581 164.153L175.724 153.163C175.5 150.29 172.99 148.143 170.117 148.367L135.754 151.047C132.881 151.271 130.734 153.782 130.958 156.655L131.815 167.645C132.039 170.518 134.55 172.665 137.423 172.441L171.785 169.761C174.658 169.536 176.805 167.026 176.581 164.153Z" fill="#6FBEDD"/>
</g>
<g id="crane-cable">
<path id="Vector_36" d="M124.717 75C124.452 75 124.197 74.9555 124.01 74.8762C123.822 74.7969 123.717 74.6893 123.717 74.5771V19.5062C123.688 19.4448 123.691 19.3815 123.727 19.3207C123.763 19.26 123.83 19.2034 123.924 19.1549C124.017 19.1065 124.135 19.0675 124.269 19.0407C124.403 19.0139 124.549 19 124.697 19C124.845 19 124.991 19.0139 125.125 19.0407C125.259 19.0675 125.377 19.1065 125.471 19.1549C125.565 19.2034 125.632 19.26 125.668 19.3207C125.703 19.3815 125.707 19.4448 125.678 19.5062V74.5771C125.678 74.6865 125.578 74.7916 125.399 74.8704C125.22 74.9493 124.975 74.9957 124.717 75V75Z" fill="#FFA038"/>
<path id="Vector_37" d="M131.297 83.6651H118.597C118.091 83.6645 117.599 83.5008 117.194 83.1981C116.788 82.8954 116.491 82.47 116.347 81.9851L113.617 72.7051C113.517 72.3558 113.498 71.988 113.564 71.6306C113.63 71.2732 113.777 70.9358 113.995 70.6451C114.213 70.3543 114.496 70.1181 114.821 69.955C115.145 69.7919 115.504 69.7064 115.867 69.7051H134.027C134.39 69.7064 134.749 69.7919 135.073 69.955C135.398 70.1181 135.681 70.3543 135.899 70.6451C136.117 70.9358 136.264 71.2732 136.33 71.6306C136.396 71.988 136.378 72.3558 136.277 72.7051L133.547 81.9851C133.404 82.4708 133.108 82.8972 132.702 83.2001C132.296 83.503 131.803 83.6662 131.297 83.6651V83.6651Z" fill="#FFA038"/>
<path id="Vector_38" d="M124.948 98.045C124.645 98.045 124.355 97.9248 124.142 97.711C123.928 97.4973 123.808 97.2073 123.808 96.905C123.808 96.6026 123.928 96.3126 124.142 96.0988C124.355 95.8851 124.645 95.765 124.948 95.765C126.008 95.765 127.026 95.3435 127.776 94.5934C128.526 93.8432 128.948 92.8258 128.948 91.765C128.948 90.7041 128.526 89.6867 127.776 88.9365C127.026 88.1864 126.008 87.765 124.948 87.765C124.645 87.765 124.355 87.6448 124.142 87.431C123.928 87.2173 123.808 86.9273 123.808 86.625V83.6649C123.834 83.3797 123.966 83.1147 124.178 82.9219C124.39 82.729 124.666 82.6221 124.953 82.6221C125.239 82.6221 125.515 82.729 125.727 82.9219C125.939 83.1147 126.071 83.3797 126.098 83.6649V85.575C127.632 85.866 129.004 86.7186 129.943 87.9663C130.883 89.2139 131.325 90.7671 131.181 92.3226C131.037 93.8781 130.319 95.3242 129.166 96.3786C128.014 97.433 126.51 98.02 124.948 98.0249V98.045Z" fill="#FFA038"/>
</g>
</g>
<g id="char">
<path id="Vector_39" d="M242.234 144.494C243.399 147.182 244.353 149.733 245.289 152.412C246.225 155.091 247.078 157.733 247.803 160.486C248.597 163.296 249.234 166.147 249.712 169.028C249.982 170.567 250.172 172.12 250.28 173.68C250.42 175.515 250.374 177.359 250.143 179.185L250.088 179.561C250.062 179.741 250.022 179.919 249.968 180.093C249.143 182.602 248.153 185.054 247.005 187.433C245.931 189.736 244.711 191.911 243.5 194.067C242.289 196.223 240.968 198.287 239.601 200.333C238.233 202.379 236.848 204.361 235.288 206.334C234.768 206.984 234.035 207.431 233.219 207.597C232.403 207.763 231.555 207.638 230.821 207.243C230.088 206.848 229.516 206.208 229.206 205.435C228.896 204.662 228.866 203.805 229.123 203.012V202.93C229.857 200.719 230.673 198.462 231.453 196.241C232.233 194.021 233.04 191.819 233.784 189.617C234.527 187.415 235.27 185.222 235.93 183.084C236.591 180.946 237.169 178.799 237.573 176.845L237.399 177.763C237.38 176.879 237.291 175.999 237.132 175.129C236.949 174.074 236.72 172.918 236.426 171.753C236.132 170.588 235.811 169.395 235.453 168.193C235.096 166.991 234.729 165.78 234.325 164.523C233.517 162.091 232.682 159.632 231.792 157.183L229.104 149.907L229.058 149.778C228.359 148.035 228.38 146.085 229.119 144.357C229.857 142.63 231.251 141.266 232.994 140.567C234.738 139.867 236.688 139.889 238.416 140.627C240.143 141.365 241.507 142.759 242.206 144.503L242.234 144.494Z" fill="#2D2D2D"/>
<path id="Vector_40" opacity="0.7" d="M242.234 144.494C243.399 147.182 244.353 149.733 245.289 152.412C246.225 155.091 247.078 157.733 247.803 160.486C248.597 163.296 249.234 166.147 249.712 169.028C249.982 170.567 250.172 172.12 250.28 173.68C250.42 175.515 250.374 177.359 250.143 179.185L250.088 179.561C250.062 179.741 250.022 179.919 249.968 180.093C249.143 182.602 248.153 185.054 247.005 187.433C245.931 189.736 244.711 191.911 243.5 194.067C242.289 196.223 240.968 198.287 239.601 200.333C238.233 202.379 236.848 204.361 235.288 206.334C234.768 206.984 234.035 207.431 233.219 207.597C232.403 207.763 231.555 207.638 230.821 207.243C230.088 206.848 229.516 206.208 229.206 205.435C228.896 204.662 228.866 203.805 229.123 203.012V202.93C229.857 200.719 230.673 198.462 231.453 196.241C232.233 194.021 233.04 191.819 233.784 189.617C234.527 187.415 235.27 185.222 235.93 183.084C236.591 180.946 237.169 178.799 237.573 176.845L237.399 177.763C237.38 176.879 237.291 175.999 237.132 175.129C236.949 174.074 236.72 172.918 236.426 171.753C236.132 170.588 235.811 169.395 235.453 168.193C235.096 166.991 234.729 165.78 234.325 164.523C233.517 162.091 232.682 159.632 231.792 157.183L229.104 149.907L229.058 149.778C228.359 148.035 228.38 146.085 229.119 144.357C229.857 142.63 231.251 141.266 232.994 140.567C234.738 139.867 236.688 139.889 238.416 140.627C240.143 141.365 241.507 142.759 242.206 144.503L242.234 144.494Z" fill="white"/>
<path id="Vector_41" d="M229.544 201.774L224.855 204.233L231.416 211.05C232.672 210.153 233.794 209.081 234.746 207.866C235.391 206.996 235.666 205.906 235.511 204.834C235.356 203.762 234.785 202.794 233.92 202.141V202.141C233.3 201.672 232.56 201.389 231.785 201.324C231.011 201.259 230.234 201.415 229.544 201.774V201.774Z" fill="#FFA038"/>
<path id="Vector_42" d="M222.305 212.041L225.012 214.041C225.533 214.424 226.174 214.612 226.82 214.57C227.466 214.528 228.076 214.259 228.544 213.812L231.379 211.059L224.819 204.242L221.809 208.197C221.368 208.773 221.173 209.501 221.266 210.221C221.359 210.941 221.732 211.595 222.305 212.041Z" fill="#FFA038"/>
<path id="Vector_43" d="M154.812 158.311L149.977 152.072L144.426 159.733C144.426 159.733 149.49 164.844 152.638 162.596L154.812 158.311Z" fill="#FFA038"/>
<path id="Vector_44" d="M141.858 150.98L140.362 153.99C140.076 154.572 140.005 155.236 140.161 155.866C140.317 156.495 140.69 157.049 141.215 157.43L144.427 159.733L149.978 152.072L145.573 149.769C145.25 149.603 144.897 149.503 144.535 149.474C144.173 149.445 143.809 149.488 143.463 149.601C143.118 149.713 142.798 149.893 142.522 150.13C142.247 150.367 142.021 150.656 141.858 150.98Z" fill="#FFA038"/>
<path id="Vector_45" d="M235.022 346.869H229.205L228.489 346.199L227.416 346.869C223.865 346.869 219.076 346.741 216.791 345.952C216.725 345.685 216.734 345.405 216.816 345.143C216.899 344.881 217.052 344.646 217.259 344.465C217.259 344.465 226.663 341.557 227.508 339.603H234.637" fill="#2D2D2D"/>
<path id="Vector_46" d="M227.81 264.614C226.645 234.538 228.544 210.765 225.691 199.232L199.083 194.929C199.083 194.929 203.983 245.879 209.873 266.954C215.763 288.029 226.388 340.08 226.388 340.08H235.444C235.444 340.08 235.664 289.295 227.81 264.614Z" fill="#2781A5"/>
<path id="Vector_47" opacity="0.2" d="M208.542 220.124L203.597 232.969C205.175 244.209 207.065 255.705 209.102 263.963C211.295 248.971 209.707 224.381 208.542 220.124Z" fill="#2D2D2D"/>
<path id="Vector_48" d="M159.657 338.245C159.657 338.245 173.043 339.263 174.511 337.648L181.53 339.805L179.567 346.869L175.236 345.548L174.75 344.695L173.484 345.007C169.979 343.933 160.712 340.951 158.712 339.502C158.74 339.226 158.843 338.963 159.01 338.742C159.176 338.52 159.4 338.349 159.657 338.245V338.245Z" fill="#2D2D2D"/>
<path id="Vector_49" d="M199.669 266.44C208.619 244.491 214.545 221.428 217.286 197.884L188.237 193.131C188.237 193.131 183.925 245.677 182.044 267.275C180.099 289.726 172.548 337.565 172.548 337.565L181.934 340.41C181.934 340.41 198.697 294.369 199.669 266.44Z" fill="#2781A5"/>
<path id="Vector_50" d="M228.131 116.491C226.425 121.996 225.379 129.969 227.03 134.474C223.819 136.695 218.773 139.282 212.653 138.3C206.533 137.319 208.276 133.346 210.221 131.456C214.928 129.887 215.424 127.676 214.644 125.556L228.131 116.491Z" fill="#FFA038"/>
<path id="Vector_51" d="M232.535 136.677C231.107 134.96 229.549 133.356 227.875 131.878C226.443 130.887 214.561 129.41 211.726 129.511C208.891 129.612 204.955 133.236 204.955 133.236L232.535 136.677Z" fill="#2781A5"/>
<path id="Vector_52" opacity="0.7" d="M232.535 136.677C231.107 134.96 229.549 133.356 227.875 131.878C226.443 130.887 214.561 129.41 211.726 129.511C208.891 129.612 204.955 133.236 204.955 133.236L232.535 136.677Z" fill="white"/>
<path id="Vector_53" d="M212.213 109.913C212.029 110.454 211.598 110.83 211.249 110.684C210.901 110.537 210.745 110.023 210.928 109.472C211.112 108.922 211.543 108.555 211.891 108.711C212.24 108.867 212.396 109.372 212.213 109.913Z" fill="#2D2D2D"/>
<path id="Vector_54" d="M212.001 110.684C210.808 112.124 209.422 113.393 207.882 114.455C208.164 114.845 208.527 115.17 208.947 115.406C209.367 115.642 209.833 115.784 210.313 115.822L212.001 110.684Z" fill="#B86000"/>
<path id="Vector_55" d="M212.213 106.16C212.235 106.211 212.27 106.256 212.316 106.288C212.361 106.32 212.414 106.34 212.47 106.344C212.889 106.386 213.292 106.527 213.646 106.755C214 106.983 214.295 107.292 214.507 107.656C214.525 107.696 214.55 107.732 214.582 107.761C214.614 107.791 214.652 107.814 214.693 107.829C214.735 107.843 214.778 107.849 214.822 107.846C214.866 107.843 214.908 107.832 214.947 107.812C215.027 107.772 215.088 107.703 215.117 107.619C215.146 107.535 215.141 107.443 215.103 107.362C214.845 106.896 214.478 106.5 214.034 106.206C213.59 105.912 213.082 105.73 212.553 105.674C212.493 105.671 212.434 105.682 212.381 105.708C212.327 105.734 212.281 105.774 212.247 105.822C212.213 105.871 212.192 105.928 212.186 105.987C212.18 106.046 212.19 106.106 212.213 106.16V106.16Z" fill="#2D2D2D"/>
<path id="Vector_56" d="M231.049 114.546C228.434 121.079 227.241 125.043 222.791 127.327C216.029 130.768 208.808 124.914 209.414 117.712C209.955 111.234 214.13 101.637 221.525 101.197C223.159 101.104 224.79 101.428 226.266 102.136C227.742 102.844 229.015 103.914 229.965 105.247C230.916 106.58 231.514 108.131 231.703 109.757C231.893 111.383 231.667 113.031 231.049 114.546Z" fill="#FFA038"/>
<path id="Vector_57" d="M216.359 114.757C216.181 116.237 216.314 117.738 216.752 119.163C217.19 120.588 217.922 121.905 218.901 123.03C219.88 124.154 221.084 125.06 222.435 125.69C223.787 126.319 225.255 126.658 226.746 126.685C233.315 126.685 233.416 117.326 232.251 115.17C235.737 114.565 237.756 109.775 235.627 106.747C238.829 104.233 231.425 100.417 222.415 99.9211C212.478 99.3706 214.295 105.224 217.607 106.995C214.423 107.94 214.093 113.61 216.359 114.757Z" fill="#2D2D2D"/>
<path id="Vector_58" d="M214.451 102.426C214.451 102.426 215.084 110.124 221.553 114.757C228.021 119.391 233.774 119.822 233.774 119.822L235.37 114.757C235.37 114.757 220.764 105.958 215.827 101.041C215.342 101.475 214.882 101.937 214.451 102.426Z" fill="#2781A5"/>
<path id="Vector_59" opacity="0.6" d="M214.451 102.426C214.451 102.426 215.084 110.124 221.553 114.757C228.021 119.391 233.774 119.822 233.774 119.822L235.37 114.757C235.37 114.757 220.764 105.958 215.827 101.041C215.342 101.475 214.882 101.937 214.451 102.426Z" fill="white"/>
<path id="Vector_60" d="M219.791 114.849C218.947 116.091 217.661 116.964 216.194 117.29C214.359 117.648 213.772 115.776 214.589 113.968C215.323 112.344 217.176 110.197 218.892 110.656C220.608 111.115 220.892 113.271 219.791 114.849Z" fill="#FFA038"/>
<path id="Vector_61" d="M232.25 135.851C222.947 133.291 209.487 131.438 200.33 131.685C198.065 131.755 195.888 132.575 194.139 134.017C192.39 135.458 191.17 137.439 190.669 139.649C187.568 153.1 187.091 177.341 186.191 201.682C206.156 211.775 228.516 207.774 228.516 207.774C229.7 203.013 229.434 186.8 229.021 178.102C231.498 169.551 235.985 160 239.389 148.659C239.776 147.35 239.899 145.976 239.748 144.618C239.598 143.261 239.178 141.947 238.513 140.754C237.848 139.561 236.952 138.513 235.876 137.671C234.801 136.829 233.568 136.21 232.25 135.851Z" fill="#2D2D2D"/>
<path id="Vector_62" opacity="0.7" d="M232.25 135.851C222.947 133.291 209.487 131.438 200.33 131.685C198.065 131.755 195.888 132.575 194.139 134.017C192.39 135.458 191.17 137.439 190.669 139.649C187.568 153.1 187.091 177.341 186.191 201.682C206.156 211.775 228.516 207.774 228.516 207.774C229.7 203.013 229.434 186.8 229.021 178.102C231.498 169.551 235.985 160 239.389 148.659C239.776 147.35 239.899 145.976 239.748 144.618C239.598 143.261 239.178 141.947 238.513 140.754C237.848 139.561 236.952 138.513 235.876 137.671C234.801 136.829 233.568 136.21 232.25 135.851Z" fill="white"/>
<path id="Vector_63" d="M202.909 130.337C195.239 129.896 190.468 133.686 188.513 145.265C186.559 156.844 184.449 183.094 185.265 192.562C211.02 203.398 226.994 198.985 230.434 196.462C231.783 194.397 231.288 187.984 230.609 185.452C232.332 180.904 233.194 176.075 233.15 171.212C236.967 167.542 238.655 160.504 238.784 157.77C242.142 153.293 242.591 143.154 240.729 140.264C238.866 137.374 233.453 132.043 202.909 130.337Z" fill="#2D2D2D"/>
<path id="Vector_64" opacity="0.2" d="M188.963 194.498C188.841 194.498 188.724 194.45 188.638 194.363C188.552 194.277 188.504 194.161 188.504 194.039C188.504 175.432 190.99 147.989 194.486 138.365C194.527 138.25 194.613 138.157 194.723 138.105C194.833 138.054 194.959 138.048 195.073 138.089C195.131 138.109 195.183 138.14 195.229 138.18C195.274 138.22 195.31 138.269 195.336 138.324C195.362 138.379 195.376 138.439 195.378 138.499C195.38 138.56 195.37 138.62 195.349 138.677C192.22 147.292 189.44 173.166 189.421 194.039C189.421 194.099 189.41 194.159 189.386 194.215C189.363 194.27 189.33 194.321 189.287 194.363C189.244 194.406 189.194 194.44 189.138 194.463C189.083 194.486 189.023 194.498 188.963 194.498Z" fill="white"/>
<path id="Vector_65" d="M202.78 143.053C201.386 145.595 199.973 147.861 198.45 150.2C196.927 152.54 195.33 154.788 193.587 157.008C191.833 159.307 189.946 161.5 187.935 163.578C186.855 164.705 185.709 165.768 184.504 166.761C183.097 167.953 181.557 168.978 179.916 169.817L179.586 169.982C179.42 170.063 179.248 170.13 179.072 170.184C176.318 170.994 173.435 171.274 170.576 171.01C169.298 170.911 168.029 170.724 166.777 170.45C165.579 170.205 164.394 169.898 163.227 169.532C160.989 168.814 158.811 167.921 156.712 166.862C155.675 166.339 154.675 165.78 153.684 165.193C152.694 164.605 151.776 164 150.739 163.247C150.074 162.769 149.596 162.074 149.385 161.282C149.175 160.49 149.246 159.65 149.585 158.904C149.925 158.159 150.513 157.554 151.249 157.193C151.985 156.832 152.823 156.738 153.62 156.926L153.932 156.999L156.804 157.669C157.777 157.898 158.758 158.1 159.731 158.284C161.624 158.657 163.535 158.933 165.456 159.109C167.211 159.269 168.977 159.269 170.732 159.109C172.132 159.004 173.504 158.66 174.787 158.091L173.943 158.467C174.599 157.985 175.213 157.448 175.778 156.862C176.485 156.137 177.246 155.311 177.98 154.43C178.714 153.549 179.448 152.595 180.164 151.632C180.879 150.668 181.623 149.668 182.329 148.641C183.733 146.604 185.137 144.503 186.504 142.365C187.871 140.227 189.256 138.016 190.522 135.942L190.587 135.832C191.061 135.032 191.688 134.332 192.432 133.774C193.177 133.216 194.024 132.809 194.925 132.579C195.827 132.348 196.765 132.297 197.686 132.428C198.607 132.56 199.493 132.872 200.294 133.346C201.095 133.82 201.794 134.447 202.352 135.191C202.911 135.936 203.317 136.783 203.548 137.684C203.779 138.586 203.83 139.524 203.698 140.445C203.566 141.366 203.255 142.252 202.78 143.053V143.053Z" fill="#2D2D2D"/>
<path id="Vector_66" opacity="0.7" d="M202.78 143.053C201.386 145.595 199.973 147.861 198.45 150.2C196.927 152.54 195.33 154.788 193.587 157.008C191.833 159.307 189.946 161.5 187.935 163.578C186.855 164.705 185.709 165.768 184.504 166.761C183.097 167.953 181.557 168.978 179.916 169.817L179.586 169.982C179.42 170.063 179.248 170.13 179.072 170.184C176.318 170.994 173.435 171.274 170.576 171.01C169.298 170.911 168.029 170.724 166.777 170.45C165.579 170.205 164.394 169.898 163.227 169.532C160.989 168.814 158.811 167.921 156.712 166.862C155.675 166.339 154.675 165.78 153.684 165.193C152.694 164.605 151.776 164 150.739 163.247C150.074 162.769 149.596 162.074 149.385 161.282C149.175 160.49 149.246 159.65 149.585 158.904C149.925 158.159 150.513 157.554 151.249 157.193C151.985 156.832 152.823 156.738 153.62 156.926L153.932 156.999L156.804 157.669C157.777 157.898 158.758 158.1 159.731 158.284C161.624 158.657 163.535 158.933 165.456 159.109C167.211 159.269 168.977 159.269 170.732 159.109C172.132 159.004 173.504 158.66 174.787 158.091L173.943 158.467C174.599 157.985 175.213 157.448 175.778 156.862C176.485 156.137 177.246 155.311 177.98 154.43C178.714 153.549 179.448 152.595 180.164 151.632C180.879 150.668 181.623 149.668 182.329 148.641C183.733 146.604 185.137 144.503 186.504 142.365C187.871 140.227 189.256 138.016 190.522 135.942L190.587 135.832C191.061 135.032 191.688 134.332 192.432 133.774C193.177 133.216 194.024 132.809 194.925 132.579C195.827 132.348 196.765 132.297 197.686 132.428C198.607 132.56 199.493 132.872 200.294 133.346C201.095 133.82 201.794 134.447 202.352 135.191C202.911 135.936 203.317 136.783 203.548 137.684C203.779 138.586 203.83 139.524 203.698 140.445C203.566 141.366 203.255 142.252 202.78 143.053V143.053Z" fill="white"/>
<path id="Vector_67" d="M235.498 117.978C235.38 118.094 235.231 118.176 235.07 118.215C234.908 118.254 234.739 118.248 234.581 118.198C229.422 116.226 224.675 113.315 220.579 109.61C213.634 103.242 213.038 95.9482 216.12 99.4348C217.827 97.5997 225.075 95.361 231.791 98.2695C238.893 101.362 242.315 110.94 235.498 117.978Z" fill="#2781A5"/>
<path id="Vector_68" d="M229.562 97.4986C231.309 99.1566 232.561 101.268 233.176 103.596C233.792 105.925 233.748 108.378 233.049 110.683C234.543 110.359 235.979 109.808 237.306 109.05C237.306 109.05 238.38 103.903 236.389 100.591C234.398 97.2784 229.994 96.4435 229.562 97.4986Z" fill="#2781A5"/>
<path id="Vector_69" opacity="0.2" d="M233.049 110.683C233.748 108.379 233.792 105.925 233.176 103.596C232.561 101.268 231.309 99.1567 229.562 97.4987C229.621 97.3957 229.703 97.3079 229.802 97.2425C229.901 97.1771 230.014 97.136 230.131 97.1226C231.526 98.0217 235.37 103.481 233.049 110.683Z" fill="#2D2D2D"/>
</g>
</g>
</svg>
