<svg width="420" height="360" viewBox="0 0 420 360" fill="none" xmlns="http://www.w3.org/2000/svg">
<g id="engineer-desktop">
<g id="shadow">
<path id="shadow_2" d="M342.125 357.265C382.925 357.265 416 352.197 416 345.945C416 339.693 382.925 334.625 342.125 334.625C301.325 334.625 268.25 339.693 268.25 345.945C268.25 352.197 301.325 357.265 342.125 357.265Z" fill="#D5ECF5"/>
</g>
<g id="application">
<g id="crane-body">
<path id="Vector" d="M127.12 112.115C126.818 112.115 126.528 111.995 126.314 111.781C126.1 111.567 125.98 111.277 125.98 110.975V19.4149C125.98 19.1126 126.1 18.8226 126.314 18.6088C126.528 18.395 126.818 18.2749 127.12 18.2749C127.422 18.2749 127.712 18.395 127.926 18.6088C128.14 18.8226 128.26 19.1126 128.26 19.4149V110.975C128.26 111.277 128.14 111.567 127.926 111.781C127.712 111.995 127.422 112.115 127.12 112.115Z" fill="#FFA038"/>
<path id="Vector_2" d="M157.639 112.115C157.337 112.115 157.047 111.995 156.833 111.781C156.619 111.567 156.499 111.277 156.499 110.975V19.4148C156.484 19.2555 156.503 19.0948 156.554 18.943C156.604 18.7912 156.686 18.6517 156.794 18.5333C156.902 18.415 157.033 18.3205 157.179 18.2558C157.326 18.1911 157.484 18.1577 157.644 18.1577C157.804 18.1577 157.962 18.1911 158.109 18.2558C158.255 18.3205 158.387 18.415 158.494 18.5333C158.602 18.6517 158.684 18.7912 158.735 18.943C158.786 19.0948 158.804 19.2555 158.789 19.4148V110.975C158.786 111.278 158.664 111.568 158.449 111.782C158.233 111.995 157.942 112.115 157.639 112.115Z" fill="#FFA038"/>
<path id="Vector_3" d="M157.64 51.0747C157.337 51.0757 157.046 50.9571 156.83 50.7447L142.38 36.2947L127.93 50.7047C127.709 50.8892 127.428 50.9845 127.141 50.9718C126.853 50.9591 126.581 50.8394 126.378 50.6361C126.175 50.4329 126.055 50.1609 126.043 49.8737C126.03 49.5866 126.125 49.3051 126.31 49.0847L140.76 34.7047L126.31 20.2247C126.136 20.0664 126.014 19.8587 125.962 19.6294C125.91 19.4001 125.929 19.1604 126.018 18.9424C126.106 18.7245 126.259 18.5388 126.456 18.4105C126.653 18.2822 126.885 18.2173 127.12 18.2247H157.64C157.867 18.2252 158.088 18.2929 158.277 18.4192C158.466 18.5456 158.613 18.7249 158.7 18.9347C158.787 19.1442 158.81 19.3752 158.766 19.5979C158.721 19.8206 158.611 20.0249 158.45 20.1847L144 34.7047L158.45 49.1547C158.629 49.3104 158.756 49.5185 158.812 49.7498C158.867 49.981 158.849 50.2239 158.76 50.4444C158.671 50.6649 158.515 50.8519 158.314 50.9793C158.113 51.1067 157.877 51.168 157.64 51.1547V51.0747ZM129.88 20.5547L142.38 33.0547L154.88 20.5547H129.88Z" fill="#FFA038"/>
<path id="Vector_4" d="M127.12 20.5546C126.893 20.5562 126.671 20.4902 126.483 20.365C126.294 20.2399 126.146 20.0613 126.059 19.852C125.972 19.6427 125.95 19.4123 125.995 19.1901C126.039 18.9679 126.149 18.7641 126.31 18.6046L141.57 3.34465C141.676 3.23762 141.802 3.15266 141.941 3.09467C142.08 3.03669 142.229 3.00684 142.38 3.00684C142.531 3.00684 142.68 3.03669 142.819 3.09467C142.958 3.15266 143.084 3.23762 143.19 3.34465L158.45 18.6046C158.557 18.7106 158.642 18.8368 158.7 18.9758C158.758 19.1149 158.788 19.264 158.788 19.4146C158.788 19.5653 158.758 19.7144 158.7 19.8535C158.642 19.9925 158.557 20.1186 158.45 20.2246C158.233 20.436 157.943 20.5543 157.64 20.5543C157.337 20.5543 157.047 20.436 156.83 20.2246L142.38 5.77465L127.93 20.2246C127.714 20.437 127.423 20.5556 127.12 20.5546Z" fill="#FFA038"/>
<path id="Vector_5" d="M188.16 20.5546C187.857 20.5535 187.567 20.4352 187.35 20.2246L172.9 5.77465L158.45 20.2246C158.233 20.436 157.943 20.5543 157.64 20.5543C157.337 20.5543 157.047 20.436 156.83 20.2246C156.723 20.1186 156.638 19.9925 156.58 19.8535C156.522 19.7144 156.492 19.5653 156.492 19.4146C156.492 19.264 156.522 19.1149 156.58 18.9758C156.638 18.8368 156.723 18.7106 156.83 18.6046L172.09 3.34465C172.196 3.23762 172.322 3.15266 172.461 3.09467C172.6 3.03669 172.749 3.00684 172.9 3.00684C173.051 3.00684 173.2 3.03669 173.339 3.09467C173.478 3.15266 173.604 3.23762 173.71 3.34465L189 18.6046C189.161 18.7641 189.271 18.9679 189.316 19.1901C189.36 19.4123 189.338 19.6427 189.251 19.852C189.164 20.0613 189.016 20.2399 188.827 20.365C188.639 20.4902 188.417 20.5562 188.19 20.5546H188.16Z" fill="#FFA038"/>
<path id="Vector_6" d="M188.16 20.5546C187.857 20.5535 187.567 20.4352 187.35 20.2246C187.243 20.1186 187.158 19.9925 187.1 19.8535C187.042 19.7144 187.012 19.5653 187.012 19.4146C187.012 19.264 187.042 19.1149 187.1 18.9758C187.158 18.8368 187.243 18.7107 187.35 18.6047L202.61 3.34465C202.716 3.23762 202.842 3.15266 202.981 3.09467C203.12 3.03669 203.269 3.00684 203.42 3.00684C203.57 3.00684 203.719 3.03669 203.858 3.09467C203.997 3.15266 204.124 3.23762 204.23 3.34465L219.49 18.6047C219.597 18.7107 219.682 18.8368 219.739 18.9758C219.797 19.1149 219.827 19.264 219.827 19.4146C219.827 19.5653 219.797 19.7144 219.739 19.8535C219.682 19.9925 219.597 20.1186 219.49 20.2246C219.273 20.436 218.982 20.5543 218.68 20.5543C218.377 20.5543 218.086 20.436 217.87 20.2246L203.42 5.77465L189 20.2246C188.889 20.3335 188.758 20.4188 188.613 20.4755C188.469 20.5322 188.315 20.5591 188.16 20.5546Z" fill="#FFA038"/>
<path id="Vector_7" d="M127.12 81.5947C126.893 81.5962 126.671 81.5302 126.483 81.4051C126.294 81.2799 126.146 81.1013 126.059 80.892C125.972 80.6827 125.95 80.4523 125.995 80.2301C126.039 80.008 126.149 79.8041 126.31 79.6447L156.83 49.1247C157.05 48.9402 157.332 48.8449 157.619 48.8576C157.906 48.8703 158.178 48.99 158.381 49.1933C158.585 49.3965 158.704 49.6685 158.717 49.9557C158.73 50.2428 158.635 50.5243 158.45 50.7447L127.93 81.2647C127.714 81.4771 127.423 81.5957 127.12 81.5947Z" fill="#FFA038"/>
<path id="Vector_8" d="M157.64 81.5946C157.337 81.5956 157.046 81.477 156.83 81.2646L126.31 50.7046C126.125 50.4843 126.03 50.2028 126.043 49.9156C126.055 49.6285 126.175 49.3565 126.378 49.1532C126.582 48.95 126.854 48.8302 127.141 48.8175C127.428 48.8048 127.709 48.9001 127.93 49.0846L158.45 79.6046C158.611 79.7641 158.721 79.9679 158.765 80.1901C158.81 80.4123 158.787 80.6427 158.7 80.852C158.613 81.0613 158.466 81.2399 158.277 81.365C158.088 81.4902 157.866 81.5562 157.64 81.5546V81.5946Z" fill="#FFA038"/>
<path id="Vector_9" d="M157.64 112.115H127.12C126.894 112.117 126.672 112.051 126.483 111.926C126.294 111.802 126.147 111.624 126.06 111.415C125.975 111.205 125.953 110.975 125.998 110.753C126.042 110.53 126.151 110.326 126.31 110.165L140.76 95.7049L126.31 81.2549C126.125 81.0346 126.03 80.7531 126.043 80.4659C126.055 80.1788 126.175 79.9068 126.378 79.7035C126.582 79.5003 126.854 79.3805 127.141 79.3678C127.428 79.3551 127.709 79.4504 127.93 79.6349L142.38 94.085L156.83 79.6349C157.05 79.4504 157.332 79.3551 157.619 79.3678C157.906 79.3805 158.178 79.5003 158.381 79.7035C158.584 79.9068 158.704 80.1788 158.717 80.4659C158.73 80.7531 158.634 81.0346 158.45 81.2549L144 95.7049L158.45 110.155C158.611 110.314 158.721 110.518 158.765 110.74C158.81 110.963 158.787 111.193 158.7 111.402C158.613 111.612 158.466 111.79 158.277 111.915C158.088 112.041 157.866 112.107 157.64 112.105V112.115ZM129.88 109.835H154.88L142.38 97.335L129.88 109.835Z" fill="#FFA038"/>
<path id="Vector_10" d="M116.44 35.8951H100.14L102.19 19.415H114.38L116.44 35.8951Z" fill="#FFA038"/>
<path id="Vector_11" d="M116.44 37.0349H100.14C99.978 37.0345 99.818 37.0005 99.6699 36.9351C99.5219 36.8697 99.3891 36.7743 99.2798 36.6549C99.1743 36.5319 99.095 36.3886 99.0469 36.2338C98.9987 36.079 98.9827 35.9161 98.9998 35.7549L101.06 19.2749C101.094 18.9991 101.228 18.7453 101.436 18.5612C101.644 18.377 101.912 18.2752 102.19 18.2749H114.38C114.659 18.2749 114.928 18.3764 115.138 18.5604C115.348 18.7444 115.483 18.9983 115.52 19.2749L117.52 35.7549C117.54 35.9151 117.525 36.0777 117.477 36.2319C117.43 36.3861 117.35 36.5284 117.243 36.6494C117.136 36.7704 117.005 36.8673 116.858 36.9338C116.711 37.0002 116.551 37.0347 116.39 37.0349H116.44ZM101.44 34.7449H115.14L113.37 20.5549H103.21L101.44 34.7449Z" fill="#FFA038"/>
<path id="Vector_12" d="M218.68 20.5548H97.5599C97.4005 20.5697 97.2398 20.5511 97.088 20.5004C96.9362 20.4496 96.7967 20.3677 96.6784 20.26C96.56 20.1522 96.4655 20.0209 96.4008 19.8745C96.3361 19.7281 96.3027 19.5698 96.3027 19.4098C96.3027 19.2497 96.3361 19.0914 96.4008 18.945C96.4655 18.7986 96.56 18.6673 96.6784 18.5596C96.7967 18.4518 96.9362 18.3699 97.088 18.3191C97.2398 18.2684 97.4005 18.2499 97.5599 18.2648H218.68C218.839 18.2499 219 18.2684 219.152 18.3191C219.303 18.3699 219.443 18.4518 219.561 18.5596C219.68 18.6673 219.774 18.7986 219.839 18.945C219.904 19.0914 219.937 19.2497 219.937 19.4098C219.937 19.5698 219.904 19.7281 219.839 19.8745C219.774 20.0209 219.68 20.1522 219.561 20.26C219.443 20.3677 219.303 20.4496 219.152 20.5004C219 20.5511 218.839 20.5697 218.68 20.5548Z" fill="#FFA038"/>
<path id="Vector_13" d="M203.42 5.29499H142.42C142.135 5.2683 141.87 5.13614 141.677 4.92437C141.484 4.71259 141.377 4.43645 141.377 4.14999C141.377 3.86354 141.484 3.5874 141.677 3.37562C141.87 3.16384 142.135 3.03168 142.42 3.005H203.42C203.579 2.99009 203.74 3.00861 203.892 3.05937C204.043 3.11013 204.183 3.19202 204.301 3.29979C204.42 3.40757 204.514 3.53885 204.579 3.68525C204.644 3.83165 204.677 3.98994 204.677 4.14999C204.677 4.31005 204.644 4.46834 204.579 4.61474C204.514 4.76114 204.42 4.89242 204.301 5.0002C204.183 5.10797 204.043 5.18986 203.892 5.24062C203.74 5.29138 203.579 5.3099 203.42 5.29499Z" fill="#FFA038"/>
</g>
<g id="screen">
<path id="Vector_14" d="M400.817 58.7051H19.517C10.947 58.7051 4 65.6523 4 74.2216V313.188C4 321.758 10.947 328.705 19.517 328.705H400.817C409.386 328.705 416.333 321.758 416.333 313.188V74.2216C416.333 65.6523 409.386 58.7051 400.817 58.7051Z" fill="#6FBEDD"/>
<path id="screen-background" d="M9.16211 74.2072V313.189C9.16211 318.898 13.7913 323.528 19.5013 323.528H400.816C406.527 323.528 411.155 318.898 411.155 313.189V74.2072C411.155 68.4963 406.527 63.8677 400.816 63.8677H19.5013C13.7913 63.8677 9.16211 68.4963 9.16211 74.2072Z" fill="white"/>
<path id="Vector_15" opacity="0.6" d="M163.624 281.789V323.542H256.663V281.789C256.663 277.899 255.119 274.168 252.369 271.418C249.618 268.668 245.888 267.123 241.997 267.123H178.246C174.364 267.134 170.645 268.684 167.904 271.434C165.162 274.183 163.624 277.906 163.624 281.789Z" fill="#6FBEDD"/>
<path id="Vector_16" opacity="0.6" d="M281.273 281.789V323.542H374.358V281.789C374.358 277.899 372.814 274.168 370.063 271.418C367.313 268.668 363.582 267.123 359.692 267.123H295.895C292.013 267.134 288.294 268.684 285.554 271.434C282.813 274.183 281.273 277.906 281.273 281.789Z" fill="#6FBEDD"/>
<path id="Vector_17" opacity="0.6" d="M45.958 281.789V323.542H139.057V281.789C139.057 277.899 137.513 274.168 134.762 271.418C132.012 268.668 128.281 267.123 124.391 267.123H60.5946C56.7096 267.13 52.9874 268.679 50.2434 271.428C47.4994 274.178 45.958 277.904 45.958 281.789Z" fill="#6FBEDD"/>
<path id="Vector_18" d="M343.618 90.0314H370.618C371.609 90.0314 372.561 89.6369 373.262 88.9358C373.963 88.2348 374.358 87.283 374.358 86.2916C374.358 85.8002 374.261 85.3133 374.073 84.8602C373.885 84.407 373.61 83.9949 373.262 83.6473C372.914 83.2997 372.502 83.024 372.049 82.8363C371.596 82.6486 371.109 82.5518 370.618 82.5518H343.618C342.628 82.5562 341.679 82.9507 340.978 83.6517C340.277 84.3513 339.882 85.3001 339.878 86.2916C339.882 87.2815 340.277 88.2319 340.978 88.9314C341.679 89.6325 342.628 90.027 343.618 90.0314Z" fill="#6FBEDD"/>
<path id="Vector_19" d="M251.693 92.1874C254.948 92.1874 257.588 89.5475 257.588 86.2917C257.588 83.0359 254.948 80.396 251.693 80.396C248.437 80.396 245.797 83.0359 245.797 86.2917C245.797 89.5475 248.437 92.1874 251.693 92.1874Z" fill="#6FBEDD"/>
<path id="Vector_20" d="M239.256 86.2917C239.256 87.4518 238.913 88.5854 238.267 89.5505C237.623 90.5155 236.707 91.2679 235.635 91.7122C234.563 92.1551 233.383 92.271 232.245 92.0452C231.107 91.8193 230.062 91.2605 229.242 90.4392C228.422 89.6194 227.863 88.5737 227.636 87.4356C227.41 86.2976 227.526 85.1184 227.97 84.0463C228.415 82.9743 229.166 82.0591 230.131 81.4138C231.096 80.77 232.229 80.4253 233.389 80.4253C234.945 80.4253 236.438 81.0427 237.538 82.1442C238.638 83.2441 239.256 84.7356 239.256 86.2917Z" fill="#6FBEDD"/>
<path id="Vector_21" d="M55.6815 80.2642H48.3046C47.0081 80.2642 45.958 81.3143 45.958 82.6107V89.9877C45.958 91.2842 47.0081 92.3342 48.3046 92.3342H55.6815C56.978 92.3342 58.0281 91.2842 58.0281 89.9877V82.6107C58.0281 81.3143 56.978 80.2642 55.6815 80.2642Z" fill="#6FBEDD"/>
<path id="Vector_22" opacity="0.2" d="M94.5176 88.1543H80.4382C79.944 88.1543 79.4703 87.9578 79.1212 87.6088C78.7722 87.2597 78.5757 86.786 78.5757 86.2917C78.5757 85.7975 78.7722 85.3238 79.1212 84.9748C79.4703 84.6257 79.944 84.4292 80.4382 84.4292H94.5176C95.0119 84.4292 95.4856 84.6257 95.8346 84.9748C96.1851 85.3238 96.3802 85.7975 96.3802 86.2917C96.3802 86.786 96.1851 87.2597 95.8346 87.6088C95.4856 87.9578 95.0119 88.1543 94.5176 88.1543Z" fill="#2D2D2D"/>
<path id="Vector_23" opacity="0.2" d="M122.002 88.1543H107.923C107.429 88.1543 106.955 87.9578 106.606 87.6088C106.256 87.2597 106.061 86.786 106.061 86.2917C106.061 85.7975 106.256 85.3238 106.606 84.9748C106.955 84.6257 107.429 84.4292 107.923 84.4292H122.002C122.497 84.4292 122.972 84.6242 123.324 84.9733C123.676 85.3223 123.875 85.796 123.88 86.2917C123.875 86.7874 123.676 87.2612 123.324 87.6088C122.972 87.9578 122.497 88.1543 122.002 88.1543Z" fill="#2D2D2D"/>
<path id="Vector_24" opacity="0.2" d="M149.501 88.1543H135.422C134.926 88.1543 134.451 87.9578 134.099 87.6088C133.747 87.2612 133.548 86.7874 133.545 86.2917C133.548 85.796 133.747 85.3223 134.099 84.9733C134.451 84.6242 134.926 84.4292 135.422 84.4292H149.501C149.996 84.4292 150.469 84.6257 150.818 84.9748C151.167 85.3238 151.364 85.7975 151.364 86.2917C151.364 86.786 151.167 87.2597 150.818 87.6088C150.469 87.9578 149.996 88.1543 149.501 88.1543Z" fill="#2D2D2D"/>
<path id="Vector_25" opacity="0.2" d="M176.984 88.1543H162.905C162.409 88.1543 161.934 87.9578 161.582 87.6088C161.231 87.2612 161.032 86.7874 161.027 86.2917C161.032 85.796 161.231 85.3223 161.582 84.9733C161.934 84.6242 162.409 84.4292 162.905 84.4292H176.984C177.478 84.4292 177.952 84.6257 178.301 84.9748C178.65 85.3238 178.846 85.7975 178.846 86.2917C178.846 86.786 178.65 87.2597 178.301 87.6088C177.952 87.9578 177.478 88.1543 176.984 88.1543Z" fill="#2D2D2D"/>
<path id="Vector_26" opacity="0.4" d="M358.425 116.505L61.0587 125.426C52.488 125.683 45.7504 132.839 46.0071 141.409L48.6059 228.026C48.8626 236.596 56.0181 243.333 64.5874 243.077L361.954 234.155C370.523 233.899 377.262 226.743 377.006 218.174L374.407 131.557C374.15 122.987 366.995 116.248 358.425 116.505Z" fill="#6FBEDD"/>
<path id="Vector_27" opacity="0.4" d="M176.39 186.563L83.7162 189.731C82.5238 189.767 81.3359 189.569 80.2198 189.147C79.1052 188.725 78.083 188.087 77.2147 187.27C76.3451 186.453 75.6455 185.472 75.1556 184.385C74.6658 183.297 74.3959 182.124 74.3593 180.931C74.3226 179.739 74.5206 178.551 74.943 177.435C75.3654 176.319 76.0033 175.298 76.8202 174.428C77.6371 173.56 78.6183 172.861 79.705 172.371C80.7932 171.881 81.9665 171.61 83.1588 171.574L175.833 168.406C177.025 168.368 178.213 168.568 179.329 168.989C180.445 169.411 181.466 170.049 182.336 170.867C183.204 171.684 183.904 172.664 184.393 173.752C184.883 174.84 185.155 176.014 185.19 177.206C185.231 178.398 185.036 179.589 184.615 180.705C184.194 181.823 183.556 182.847 182.738 183.716C181.921 184.586 180.938 185.286 179.848 185.774C178.759 186.262 177.584 186.531 176.39 186.563Z" fill="#6FBEDD"/>
<path id="Vector_28" opacity="0.4" d="M145.9 215.176L84.6549 217.258C82.2585 217.333 79.931 216.459 78.177 214.824C76.4244 213.189 75.389 210.927 75.2981 208.532C75.2599 207.34 75.4594 206.152 75.8803 205.036C76.3027 203.921 76.9407 202.899 77.759 202.031C78.5759 201.161 79.5556 200.461 80.6438 199.972C81.732 199.482 82.9053 199.212 84.0976 199.175L145.328 197.078C146.52 197.041 147.708 197.239 148.823 197.662C149.939 198.084 150.961 198.722 151.829 199.539C152.699 200.356 153.399 201.337 153.888 202.424C154.378 203.512 154.648 204.685 154.685 205.878C154.743 208.273 153.853 210.596 152.208 212.336C150.562 214.079 148.295 215.1 145.9 215.176Z" fill="#6FBEDD"/>
</g>
<g id="crane-cable">
<path id="Vector_29" d="M216.02 104.705C215.754 104.705 215.5 104.637 215.312 104.515C215.125 104.393 215.02 104.228 215.02 104.056V19.4824C214.99 19.3882 214.994 19.2909 215.03 19.1976C215.065 19.1043 215.133 19.0174 215.226 18.943C215.32 18.8686 215.438 18.8087 215.572 18.7676C215.706 18.7264 215.852 18.7051 216 18.7051C216.148 18.7051 216.294 18.7264 216.428 18.7676C216.562 18.8087 216.68 18.8686 216.774 18.943C216.867 19.0174 216.935 19.1043 216.97 19.1976C217.006 19.2909 217.01 19.3882 216.98 19.4824V104.056C216.981 104.224 216.881 104.385 216.701 104.506C216.522 104.627 216.278 104.698 216.02 104.705Z" fill="#FFA038"/>
<path id="Vector_30" d="M222.6 113.665H209.9C209.394 113.665 208.902 113.501 208.496 113.198C208.091 112.895 207.794 112.47 207.65 111.985L204.92 102.705C204.819 102.356 204.801 101.988 204.867 101.631C204.932 101.273 205.08 100.936 205.298 100.645C205.516 100.354 205.799 100.118 206.123 99.955C206.448 99.7919 206.806 99.7064 207.17 99.7051H225.33C225.693 99.7064 226.051 99.7919 226.376 99.955C226.701 100.118 226.983 100.354 227.201 100.645C227.42 100.936 227.567 101.273 227.633 101.631C227.698 101.988 227.68 102.356 227.58 102.705L224.85 111.985C224.707 112.471 224.41 112.897 224.005 113.2C223.599 113.503 223.106 113.666 222.6 113.665Z" fill="#FFA038"/>
<path id="Vector_31" d="M216.25 128.045C215.948 128.045 215.658 127.925 215.444 127.711C215.23 127.497 215.11 127.207 215.11 126.905C215.11 126.603 215.23 126.313 215.444 126.099C215.658 125.885 215.948 125.765 216.25 125.765C217.311 125.765 218.329 125.344 219.079 124.593C219.829 123.843 220.25 122.826 220.25 121.765C220.25 120.704 219.829 119.687 219.079 118.937C218.329 118.186 217.311 117.765 216.25 117.765C215.948 117.765 215.658 117.645 215.444 117.431C215.23 117.217 215.11 116.927 215.11 116.625V113.665C215.137 113.38 215.269 113.115 215.481 112.922C215.693 112.729 215.969 112.622 216.255 112.622C216.542 112.622 216.818 112.729 217.03 112.922C217.241 113.115 217.374 113.38 217.4 113.665V115.575C218.935 115.866 220.306 116.719 221.246 117.966C222.186 119.214 222.627 120.767 222.484 122.323C222.34 123.878 221.622 125.324 220.469 126.379C219.317 127.433 217.812 128.02 216.25 128.025V128.045Z" fill="#FFA038"/>
</g>
</g>
<g id="char">
<path id="Vector_32" d="M383.537 144.494C384.702 147.182 385.656 149.733 386.592 152.412C387.528 155.091 388.381 157.733 389.106 160.486C389.899 163.296 390.537 166.147 391.014 169.028C391.285 170.567 391.475 172.12 391.583 173.68C391.723 175.515 391.677 177.359 391.445 179.185L391.39 179.561C391.365 179.741 391.325 179.919 391.271 180.093C390.446 182.602 389.456 185.054 388.308 187.433C387.234 189.736 386.014 191.911 384.803 194.067C383.592 196.223 382.27 198.287 380.903 200.333C379.536 202.379 378.151 204.361 376.591 206.334C376.07 206.984 375.338 207.431 374.522 207.597C373.706 207.763 372.857 207.638 372.124 207.243C371.391 206.848 370.819 206.208 370.509 205.435C370.198 204.662 370.169 203.805 370.425 203.012V202.93C371.159 200.719 371.976 198.462 372.756 196.241C373.536 194.021 374.343 191.819 375.086 189.617C375.829 187.415 376.573 185.222 377.233 183.084C377.894 180.946 378.472 178.799 378.876 176.845L378.701 177.763C378.682 176.879 378.593 175.999 378.435 175.129C378.252 174.074 378.022 172.918 377.729 171.753C377.435 170.588 377.114 169.395 376.756 168.193C376.398 166.991 376.031 165.78 375.628 164.523C374.82 162.091 373.985 159.632 373.095 157.183L370.407 149.907L370.361 149.778C369.661 148.035 369.683 146.085 370.421 144.357C371.159 142.63 372.554 141.266 374.297 140.567C376.041 139.867 377.991 139.889 379.718 140.627C381.446 141.365 382.809 142.759 383.509 144.503L383.537 144.494Z" fill="#2D2D2D"/>
<path id="Vector_33" opacity="0.7" d="M383.537 144.494C384.702 147.182 385.656 149.733 386.592 152.412C387.528 155.091 388.381 157.733 389.106 160.486C389.899 163.296 390.537 166.147 391.014 169.028C391.285 170.567 391.475 172.12 391.583 173.68C391.723 175.515 391.677 177.359 391.445 179.185L391.39 179.561C391.365 179.741 391.325 179.919 391.271 180.093C390.446 182.602 389.456 185.054 388.308 187.433C387.234 189.736 386.014 191.911 384.803 194.067C383.592 196.223 382.27 198.287 380.903 200.333C379.536 202.379 378.151 204.361 376.591 206.334C376.07 206.984 375.338 207.431 374.522 207.597C373.706 207.763 372.857 207.638 372.124 207.243C371.391 206.848 370.819 206.208 370.509 205.435C370.198 204.662 370.169 203.805 370.425 203.012V202.93C371.159 200.719 371.976 198.462 372.756 196.241C373.536 194.021 374.343 191.819 375.086 189.617C375.829 187.415 376.573 185.222 377.233 183.084C377.894 180.946 378.472 178.799 378.876 176.845L378.701 177.763C378.682 176.879 378.593 175.999 378.435 175.129C378.252 174.074 378.022 172.918 377.729 171.753C377.435 170.588 377.114 169.395 376.756 168.193C376.398 166.991 376.031 165.78 375.628 164.523C374.82 162.091 373.985 159.632 373.095 157.183L370.407 149.907L370.361 149.778C369.661 148.035 369.683 146.085 370.421 144.357C371.159 142.63 372.554 141.266 374.297 140.567C376.041 139.867 377.991 139.889 379.718 140.627C381.446 141.365 382.809 142.759 383.509 144.503L383.537 144.494Z" fill="white"/>
<path id="Vector_34" d="M370.847 201.774L366.158 204.233L372.718 211.05C373.975 210.153 375.096 209.081 376.049 207.866C376.693 206.996 376.968 205.906 376.814 204.834C376.659 203.762 376.087 202.794 375.223 202.141C374.603 201.672 373.863 201.389 373.088 201.324C372.313 201.259 371.536 201.415 370.847 201.774Z" fill="#FFA038"/>
<path id="Vector_35" d="M363.608 212.041L366.314 214.041C366.836 214.424 367.476 214.612 368.122 214.57C368.768 214.528 369.379 214.259 369.847 213.812L372.682 211.059L366.122 204.242L363.112 208.197C362.671 208.773 362.476 209.501 362.568 210.221C362.661 210.941 363.035 211.595 363.608 212.041Z" fill="#FFA038"/>
<path id="Vector_36" d="M296.115 158.311L291.279 152.072L285.729 159.733C285.729 159.733 290.793 164.844 293.94 162.596L296.115 158.311Z" fill="#FFA038"/>
<path id="Vector_37" d="M283.16 150.98L281.665 153.99C281.379 154.572 281.308 155.236 281.464 155.866C281.62 156.495 281.993 157.049 282.518 157.43L285.729 159.733L291.28 152.072L286.876 149.769C286.553 149.603 286.2 149.503 285.838 149.474C285.476 149.445 285.111 149.488 284.766 149.601C284.421 149.713 284.101 149.893 283.825 150.13C283.55 150.367 283.324 150.656 283.16 150.98Z" fill="#FFA038"/>
<path id="Vector_38" d="M376.325 346.869H370.508L369.792 346.199L368.719 346.869C365.168 346.869 360.378 346.741 358.094 345.952C358.028 345.685 358.036 345.405 358.119 345.143C358.201 344.881 358.355 344.646 358.562 344.465C358.562 344.465 367.966 341.557 368.81 339.603H375.939" fill="#2D2D2D"/>
<path id="Vector_39" d="M369.113 264.614C367.948 234.538 369.847 210.765 366.994 199.232L340.386 194.929C340.386 194.929 345.285 245.879 351.176 266.954C357.066 288.029 367.691 340.079 367.691 340.079H376.747C376.747 340.079 376.967 289.295 369.113 264.614Z" fill="#2781A5"/>
<path id="Vector_40" opacity="0.2" d="M349.845 220.124L344.899 232.969C346.478 244.209 348.368 255.705 350.405 263.963C352.597 248.971 351.01 224.381 349.845 220.124Z" fill="#2D2D2D"/>
<path id="Vector_41" d="M300.96 338.245C300.96 338.245 314.346 339.263 315.814 337.648L322.833 339.805L320.87 346.869L316.539 345.548L316.053 344.695L314.787 345.007C311.282 343.933 302.015 340.951 300.015 339.502C300.043 339.226 300.146 338.963 300.312 338.742C300.479 338.52 300.703 338.349 300.96 338.245Z" fill="#2D2D2D"/>
<path id="Vector_42" d="M340.972 266.44C349.921 244.491 355.848 221.428 358.588 197.884L329.54 193.131C329.54 193.131 325.228 245.677 323.347 267.275C321.402 289.726 313.851 337.565 313.851 337.565L323.237 340.41C323.237 340.41 340 294.369 340.972 266.44Z" fill="#2781A5"/>
<path id="Vector_43" d="M369.434 116.491C367.727 121.996 366.681 129.969 368.333 134.474C365.122 136.695 360.075 139.282 353.956 138.3C347.836 137.319 349.579 133.346 351.524 131.456C356.231 129.887 356.726 127.676 355.947 125.556L369.434 116.491Z" fill="#FFA038"/>
<path id="Vector_44" d="M373.838 136.677C372.41 134.96 370.851 133.356 369.177 131.878C367.746 130.887 355.864 129.41 353.029 129.511C350.194 129.612 346.258 133.236 346.258 133.236L373.838 136.677Z" fill="#2781A5"/>
<path id="Vector_45" opacity="0.7" d="M373.838 136.677C372.41 134.96 370.851 133.356 369.177 131.878C367.746 130.887 355.864 129.41 353.029 129.511C350.194 129.612 346.258 133.236 346.258 133.236L373.838 136.677Z" fill="white"/>
<path id="Vector_46" d="M353.515 109.913C353.332 110.454 352.901 110.83 352.552 110.684C352.203 110.537 352.047 110.023 352.231 109.472C352.414 108.922 352.846 108.555 353.194 108.711C353.543 108.867 353.699 109.372 353.515 109.913Z" fill="#2D2D2D"/>
<path id="Vector_47" d="M353.304 110.684C352.111 112.124 350.724 113.393 349.185 114.455C349.466 114.845 349.83 115.17 350.25 115.406C350.67 115.642 351.136 115.784 351.616 115.822L353.304 110.684Z" fill="#B86000"/>
<path id="Vector_48" d="M353.516 106.16C353.538 106.211 353.573 106.256 353.618 106.288C353.664 106.32 353.717 106.34 353.773 106.344C354.192 106.386 354.595 106.527 354.949 106.755C355.303 106.983 355.598 107.292 355.81 107.656C355.827 107.696 355.853 107.732 355.885 107.761C355.917 107.791 355.955 107.814 355.996 107.829C356.037 107.843 356.081 107.849 356.125 107.846C356.168 107.843 356.211 107.832 356.25 107.812C356.33 107.772 356.391 107.703 356.42 107.619C356.449 107.535 356.444 107.443 356.406 107.362C356.148 106.896 355.781 106.5 355.337 106.206C354.893 105.912 354.385 105.73 353.855 105.674C353.796 105.671 353.737 105.682 353.683 105.708C353.63 105.734 353.584 105.774 353.55 105.822C353.516 105.871 353.495 105.928 353.489 105.987C353.483 106.046 353.492 106.106 353.516 106.16Z" fill="#2D2D2D"/>
<path id="Vector_49" d="M372.351 114.546C369.736 121.079 368.544 125.043 364.094 127.327C357.332 130.768 350.111 124.914 350.716 117.712C351.258 111.234 355.432 101.637 362.827 101.197C364.462 101.104 366.093 101.428 367.569 102.136C369.045 102.844 370.317 103.914 371.268 105.247C372.219 106.58 372.817 108.131 373.006 109.757C373.196 111.383 372.97 113.031 372.351 114.546Z" fill="#FFA038"/>
<path id="Vector_50" d="M357.662 114.757C357.483 116.237 357.617 117.738 358.055 119.163C358.493 120.588 359.225 121.905 360.204 123.03C361.183 124.154 362.387 125.06 363.738 125.69C365.089 126.319 366.558 126.658 368.048 126.685C374.618 126.685 374.719 117.326 373.553 115.17C377.04 114.565 379.058 109.775 376.93 106.747C380.132 104.233 372.728 100.417 363.718 99.9211C353.781 99.3706 355.598 105.224 358.91 106.995C355.726 107.94 355.396 113.61 357.662 114.757Z" fill="#2D2D2D"/>
<path id="Vector_51" d="M355.754 102.426C355.754 102.426 356.387 110.124 362.855 114.757C369.324 119.391 375.077 119.822 375.077 119.822L376.673 114.757C376.673 114.757 362.066 105.958 357.13 101.041C356.644 101.475 356.185 101.937 355.754 102.426Z" fill="#2781A5"/>
<path id="Vector_52" opacity="0.6" d="M355.754 102.426C355.754 102.426 356.387 110.124 362.855 114.757C369.324 119.391 375.077 119.822 375.077 119.822L376.673 114.757C376.673 114.757 362.066 105.958 357.13 101.041C356.644 101.475 356.185 101.937 355.754 102.426Z" fill="white"/>
<path id="Vector_53" d="M361.094 114.849C360.25 116.091 358.963 116.964 357.497 117.29C355.662 117.648 355.075 115.776 355.891 113.968C356.625 112.344 358.479 110.197 360.195 110.656C361.91 111.115 362.195 113.271 361.094 114.849Z" fill="#FFA038"/>
<path id="Vector_54" d="M373.553 135.851C364.25 133.291 350.79 131.438 341.633 131.685C339.368 131.755 337.19 132.575 335.442 134.017C333.693 135.458 332.472 137.439 331.972 139.649C328.87 153.1 328.393 177.341 327.494 201.682C347.459 211.775 369.819 207.774 369.819 207.774C371.002 203.013 370.736 186.8 370.324 178.102C372.801 169.551 377.287 160 380.691 148.659C381.079 147.35 381.201 145.976 381.051 144.618C380.901 143.261 380.481 141.947 379.816 140.754C379.151 139.561 378.254 138.513 377.179 137.671C376.104 136.829 374.871 136.21 373.553 135.851Z" fill="#2D2D2D"/>
<path id="Vector_55" opacity="0.7" d="M373.553 135.851C364.25 133.291 350.79 131.438 341.633 131.685C339.368 131.755 337.19 132.575 335.442 134.017C333.693 135.458 332.472 137.439 331.972 139.649C328.87 153.1 328.393 177.341 327.494 201.682C347.459 211.775 369.819 207.774 369.819 207.774C371.002 203.013 370.736 186.8 370.324 178.102C372.801 169.551 377.287 160 380.691 148.659C381.079 147.35 381.201 145.976 381.051 144.618C380.901 143.261 380.481 141.947 379.816 140.754C379.151 139.561 378.254 138.513 377.179 137.671C376.104 136.829 374.871 136.21 373.553 135.851Z" fill="white"/>
<path id="Vector_56" d="M344.212 130.337C336.541 129.896 331.77 133.686 329.816 145.265C327.862 156.844 325.751 183.094 326.568 192.562C352.323 203.398 368.296 198.985 371.737 196.462C373.086 194.397 372.59 187.984 371.911 185.452C373.635 180.904 374.497 176.075 374.453 171.212C378.27 167.542 379.958 160.504 380.086 157.77C383.445 153.293 383.894 143.154 382.032 140.264C380.169 137.374 374.756 132.043 344.212 130.337Z" fill="#2D2D2D"/>
<path id="Vector_57" opacity="0.2" d="M330.265 194.498C330.144 194.498 330.027 194.45 329.941 194.363C329.855 194.277 329.807 194.161 329.807 194.039C329.807 175.432 332.293 147.989 335.789 138.365C335.83 138.25 335.915 138.157 336.025 138.105C336.136 138.054 336.262 138.048 336.376 138.089C336.433 138.109 336.486 138.14 336.531 138.18C336.577 138.22 336.613 138.269 336.639 138.324C336.664 138.379 336.679 138.439 336.681 138.499C336.683 138.56 336.673 138.62 336.651 138.677C333.523 147.292 330.743 173.166 330.724 194.039C330.724 194.099 330.712 194.159 330.689 194.215C330.666 194.27 330.632 194.321 330.59 194.363C330.547 194.406 330.497 194.44 330.441 194.463C330.385 194.486 330.326 194.498 330.265 194.498Z" fill="white"/>
<path id="Vector_58" d="M344.083 143.053C342.689 145.595 341.276 147.861 339.753 150.2C338.229 152.54 336.633 154.788 334.89 157.008C333.136 159.307 331.249 161.5 329.238 163.578C328.157 164.705 327.011 165.768 325.806 166.761C324.4 167.953 322.86 168.978 321.219 169.817L320.888 169.982C320.723 170.063 320.551 170.13 320.375 170.184C317.62 170.994 314.737 171.274 311.879 171.01C310.601 170.911 309.332 170.724 308.08 170.45C306.882 170.205 305.696 169.898 304.529 169.532C302.292 168.814 300.113 167.921 298.015 166.862C296.978 166.339 295.978 165.78 294.987 165.193C293.996 164.605 293.079 164 292.042 163.247C291.377 162.769 290.898 162.074 290.688 161.282C290.478 160.49 290.548 159.65 290.888 158.904C291.228 158.159 291.816 157.554 292.552 157.193C293.287 156.832 294.125 156.738 294.923 156.926L295.235 156.999L298.107 157.669C299.079 157.898 300.061 158.1 301.034 158.284C302.927 158.657 304.838 158.933 306.759 159.109C308.514 159.269 310.28 159.269 312.035 159.109C313.435 159.004 314.806 158.66 316.09 158.091L315.246 158.467C315.902 157.985 316.516 157.448 317.081 156.862C317.787 156.137 318.549 155.311 319.283 154.43C320.017 153.549 320.751 152.595 321.467 151.632C322.182 150.668 322.925 149.668 323.632 148.641C325.036 146.604 326.439 144.503 327.807 142.365C329.174 140.227 330.559 138.016 331.825 135.942L331.889 135.832C332.364 135.032 332.991 134.332 333.735 133.774C334.48 133.216 335.327 132.809 336.228 132.579C337.13 132.348 338.068 132.297 338.989 132.428C339.91 132.56 340.796 132.872 341.597 133.346C342.397 133.82 343.097 134.447 343.655 135.191C344.213 135.936 344.619 136.783 344.85 137.684C345.081 138.586 345.132 139.524 345.001 140.445C344.869 141.366 344.557 142.252 344.083 143.053Z" fill="#2D2D2D"/>
<path id="Vector_59" opacity="0.7" d="M344.083 143.053C342.689 145.595 341.276 147.861 339.753 150.2C338.229 152.54 336.633 154.788 334.89 157.008C333.136 159.307 331.249 161.5 329.238 163.578C328.157 164.705 327.011 165.768 325.806 166.761C324.4 167.953 322.86 168.978 321.219 169.817L320.888 169.982C320.723 170.063 320.551 170.13 320.375 170.184C317.62 170.994 314.737 171.274 311.879 171.01C310.601 170.911 309.332 170.724 308.08 170.45C306.882 170.205 305.696 169.898 304.529 169.532C302.292 168.814 300.113 167.921 298.015 166.862C296.978 166.339 295.978 165.78 294.987 165.193C293.996 164.605 293.079 164 292.042 163.247C291.377 162.769 290.898 162.074 290.688 161.282C290.478 160.49 290.548 159.65 290.888 158.904C291.228 158.159 291.816 157.554 292.552 157.193C293.287 156.832 294.125 156.738 294.923 156.926L295.235 156.999L298.107 157.669C299.079 157.898 300.061 158.1 301.034 158.284C302.927 158.657 304.838 158.933 306.759 159.109C308.514 159.269 310.28 159.269 312.035 159.109C313.435 159.004 314.806 158.66 316.09 158.091L315.246 158.467C315.902 157.985 316.516 157.448 317.081 156.862C317.787 156.137 318.549 155.311 319.283 154.43C320.017 153.549 320.751 152.595 321.467 151.632C322.182 150.668 322.925 149.668 323.632 148.641C325.036 146.604 326.439 144.503 327.807 142.365C329.174 140.227 330.559 138.016 331.825 135.942L331.889 135.832C332.364 135.032 332.991 134.332 333.735 133.774C334.48 133.216 335.327 132.809 336.228 132.579C337.13 132.348 338.068 132.297 338.989 132.428C339.91 132.56 340.796 132.872 341.597 133.346C342.397 133.82 343.097 134.447 343.655 135.191C344.213 135.936 344.619 136.783 344.85 137.684C345.081 138.586 345.132 139.524 345.001 140.445C344.869 141.366 344.557 142.252 344.083 143.053Z" fill="white"/>
<path id="Vector_60" d="M376.801 117.978C376.682 118.094 376.534 118.176 376.373 118.215C376.211 118.253 376.042 118.248 375.883 118.198C370.725 116.226 365.977 113.315 361.882 109.61C354.937 103.242 354.34 95.9482 357.423 99.4348C359.13 97.5997 366.378 95.361 373.094 98.2695C380.196 101.362 383.618 110.94 376.801 117.978Z" fill="#2781A5"/>
<path id="Vector_61" d="M370.865 97.4986C372.612 99.1566 373.863 101.268 374.479 103.596C375.095 105.925 375.051 108.378 374.352 110.683C375.846 110.359 377.281 109.808 378.609 109.05C378.609 109.05 379.683 103.903 377.692 100.591C375.701 97.2784 371.296 96.4435 370.865 97.4986Z" fill="#2781A5"/>
<path id="Vector_62" opacity="0.2" d="M374.352 110.683C375.051 108.379 375.095 105.925 374.479 103.596C373.863 101.268 372.612 99.1567 370.865 97.4987C370.924 97.3957 371.006 97.3079 371.105 97.2425C371.203 97.1771 371.316 97.136 371.434 97.1226C372.829 98.0217 376.673 103.481 374.352 110.683Z" fill="#2D2D2D"/>
</g>
</g>
</svg>
